<svg width="105" height="44" viewBox="0 0 105 44" fill="none" xmlns="http://www.w3.org/2000/svg">
<g clip-path="url(#clip0_11_2)">
<path d="M55.5 12H48.5V28C48.5 30.1217 47.6571 32.1566 46.1569 33.6569C44.6566 35.1571 42.6217 36 40.5 36C38.3783 36 36.3434 35.1571 34.8431 33.6569C33.3429 32.1566 32.5 30.1217 32.5 28V13C32.5 12.7348 32.3946 12.4804 32.2071 12.2929C32.0196 12.1054 31.7652 12 31.5 12H24.5V28C24.5 32.2435 26.1857 36.3131 29.1863 39.3137C32.1869 42.3143 36.2565 44 40.5 44C44.7435 44 48.8131 42.3143 51.8137 39.3137C54.8143 36.3131 56.5 32.2435 56.5 28V13C56.5 12.7348 56.3946 12.4804 56.2071 12.2929C56.0196 12.1054 55.7652 12 55.5 12ZM24.1 40.96L21.07 35.75C20.9475 35.5355 20.75 35.3739 20.5156 35.2964C20.2811 35.2189 20.0262 35.2308 19.8 35.33C18.5791 35.8609 17.2456 36.0807 15.9189 35.9698C14.5922 35.8588 13.3138 35.4205 12.198 34.6942C11.0823 33.9679 10.1641 32.9762 9.52572 31.8079C8.88732 30.6397 8.54864 29.3313 8.54 28V21C8.54 20.7348 8.64536 20.4804 8.83289 20.2929C9.02043 20.1054 9.27478 20 9.54 20H19.6C19.8652 20 20.1196 19.8946 20.3071 19.7071C20.4946 19.5196 20.6 19.2652 20.6 19V13C20.6 12.7348 20.4946 12.4804 20.3071 12.2929C20.1196 12.1054 19.8652 12 19.6 12H9.54C9.27478 12 9.02043 11.8946 8.83289 11.7071C8.64536 11.5196 8.54 11.2652 8.54 11V1C8.54 0.734784 8.43464 0.48043 8.24711 0.292893C8.05957 0.105357 7.80522 0 7.54 0L0.5 0V28C0.5 36.84 7.7 44 16.58 44C19.12 44 21.53 43.41 23.68 42.36C23.8028 42.2992 23.9118 42.2137 24.0003 42.109C24.0887 42.0043 24.1547 41.8825 24.194 41.7512C24.2334 41.6199 24.2454 41.4819 24.2292 41.3458C24.213 41.2097 24.1691 41.0784 24.1 40.96ZM100.5 0C99.4391 0 98.4217 0.421427 97.6716 1.17157C96.9214 1.92172 96.5 2.93913 96.5 4C96.5 5.06087 96.9214 6.07828 97.6716 6.82843C98.4217 7.57857 99.4391 8 100.5 8C101.561 8 102.578 7.57857 103.328 6.82843C104.079 6.07828 104.5 5.06087 104.5 4C104.5 2.93913 104.079 1.92172 103.328 1.17157C102.578 0.421427 101.561 0 100.5 0ZM103.5 12H96.5V43C96.5 43.2652 96.6054 43.5196 96.7929 43.7071C96.9804 43.8946 97.2348 44 97.5 44H103.5C103.765 44 104.02 43.8946 104.207 43.7071C104.395 43.5196 104.5 43.2652 104.5 43V13C104.5 12.7348 104.395 12.4804 104.207 12.2929C104.02 12.1054 103.765 12 103.5 12ZM76.5 36C74.3783 36 72.3434 35.1571 70.8431 33.6569C69.3429 32.1566 68.5 30.1217 68.5 28C68.5 25.8783 69.3429 23.8434 70.8431 22.3431C72.3434 20.8429 74.3783 20 76.5 20C78.6217 20 80.6566 20.8429 82.1569 22.3431C83.6571 23.8434 84.5 25.8783 84.5 28C84.5 30.1217 83.6571 32.1566 82.1569 33.6569C80.6566 35.1571 78.6217 36 76.5 36ZM76.5 12C74.15 12 71.92 12.5 69.91 13.42C69.7571 13.4887 69.5894 13.5179 69.4222 13.5049C69.2551 13.4919 69.0939 13.437 68.9535 13.3454C68.8131 13.2538 68.698 13.1284 68.6188 12.9806C68.5395 12.8329 68.4987 12.6676 68.5 12.5V1C68.5 0.734784 68.3946 0.48043 68.2071 0.292893C68.0196 0.105357 67.7652 0 67.5 0L60.5 0V28C60.5 31.1645 61.4384 34.2579 63.1965 36.8891C64.9546 39.5203 67.4534 41.5711 70.3771 42.7821C73.3007 43.9931 76.5177 44.3099 79.6214 43.6926C82.7251 43.0752 85.5761 41.5513 87.8137 39.3137C90.0513 37.0761 91.5752 34.2251 92.1926 31.1214C92.8099 28.0177 92.4931 24.8007 91.2821 21.8771C90.0711 18.9534 88.0203 16.4546 85.3891 14.6965C82.7579 12.9384 79.6645 12 76.5 12Z" fill="white"/>
</g>
<defs>
<clipPath id="clip0_11_2">
<rect width="105" height="44" fill="white"/>
</clipPath>
</defs>
</svg>
